<?xml version="1.0" encoding="utf-8"?>
<!-- Generator: Adobe Illustrator 22.1.0, SVG Export Plug-In . SVG Version: 6.00 Build 0)  -->
<svg version="1.0" id="Livello_1" xmlns="http://www.w3.org/2000/svg" xmlns:xlink="http://www.w3.org/1999/xlink" x="0px" y="0px"
	 width="1352.9px" height="282.3px" viewBox="0 0 1352.9 282.3" enable-background="new 0 0 1352.9 282.3" xml:space="preserve">
<image display="none" overflow="visible" width="500" height="500" xlink:href="41nSaUJAYwL.jpg"  transform="matrix(3 0 0 3 -67.8288 -625.4886)">
</image>
<path fill="#FFFFFF" stroke="#B2B2B2" stroke-miterlimit="10" d="M290.2,247V19h98.5c45.6,0,82.5,36.9,82.5,82.5v18.6
	c0,17.1-14,45.8-31,52.9h0l43,74h-87l-23-36v-82.8h3.6c11.8,0,21.4-9.6,21.4-21.4v-6.2c0-10.7-8.7-19.4-19.4-19.4h-17.9V247H290.2z"
	/>
<path fill="#FFFFFF" stroke="#B2B2B2" stroke-miterlimit="10" d="M965.2,248.2V17.8h87.1c58.4,0,105.8,47.3,105.8,105.8V144
	c0,57.5-48.2,104.1-105.8,104.1h-6.4v-68.8h3.2c21.5,0,39.9-17.5,39.9-39v-15.9c0-22.1-17.9-39.9-39.9-39.9h-15.9v163.6H965.2z"/>
<polygon fill="#FFFFFF" stroke="#B2B2B2" stroke-miterlimit="10" points="1180.7,248.2 1180.7,17.8 1314.7,17.8 1314.7,77.7 
	1249.7,77.7 1249.7,104.2 1314.7,104.2 1314.7,158.2 1247.7,158.2 1247.7,186.2 1314.7,186.2 1314.7,248.2 "/>
<g>
	<g>
		<path fill="#FFFFFF" stroke="#B2B2B2" stroke-miterlimit="10" d="M829.2,11.9c-0.6,0-1.1,0-1.6,0c-0.5,0-1.1,0-1.6,0
			c-10.5,0-20.8,1.6-30.5,4.7c-25,7.9-46.5,25.5-62.3,50.9c-11.4,18.4-19.7,41.2-22.2,61c-2.8,22.4-4.2,49-3.8,71
			c0.2,11.6,1,21.1,2.2,28.3c0.8,4.8,1.9,8.6,3.2,11.7c4.6,10.6,12.5,13.1,16.8,13.7c3.4,0.5,6.4,0.7,9.2,0.7
			c5.6,0,10.4-0.9,14.7-2.6c12.4-5.1,17.5-14.5,21-20.8c1.8-3.3,2.8-4.9,3.6-5.3c0.8-0.4,2-0.6,3.4-0.6c1.9,0,3.5,0.5,4.4,0.9
			c1.2,0.6,2,1.7,4.3,5.7c3.7,6.3,9.2,15.8,22.4,20.2c3.2,1.1,10.7,2,15,2l0.2,0l0.2,0c4.3-0.1,11.8-1,15-2
			c13.1-4.4,18.7-13.9,22.4-20.2c2.3-3.9,3.1-5.1,4.3-5.7c0.9-0.4,2.5-0.9,4.4-0.9c1.3,0,2.6,0.2,3.4,0.6c0.9,0.4,1.8,2,3.6,5.3
			c3.4,6.3,8.6,15.7,21,20.8c4.3,1.8,9.1,2.6,14.7,2.6c2.8,0,5.9-0.2,9.2-0.7c4.3-0.6,12.3-3.2,16.8-13.7c1.4-3.1,2.4-7,3.2-11.7
			c1.2-7.2,2-16.7,2.2-28.3c0.5-22.1-0.9-48.6-3.8-71c-2.5-19.9-10.8-42.7-22.2-61c-15.8-25.4-37.3-43-62.3-50.9
			C850,13.5,839.7,11.9,829.2,11.9L829.2,11.9z"/>
		<g>
			<path fill="#0168D1" d="M827.6,235.5c-3.9-0.1-9.1-1-9.4-1.1c-13.2-4.4-11.6-18.9-24.8-25.1c-6.8-3.2-16.3-3.7-23.6,0
				c-12.1,6.2-10.7,20.3-23.3,25.5c-4.2,1.7-10,1.4-14.6,0.8c-8.3-1.1-8.6-60.8-3.1-104.7c3.7-29.1,24.7-82,72.1-97
				c9.5-3,18.6-4,26.7-3.8c8.1-0.2,17.2,0.8,26.7,3.8c47.4,15.1,68.4,67.9,72.1,97c5.5,44,5.2,103.6-3.1,104.7
				c-4.6,0.6-10.4,1-14.6-0.8c-12.6-5.2-11.1-19.3-23.3-25.5c-7.3-3.7-16.8-3.2-23.6,0c-13.2,6.3-11.6,20.7-24.8,25.1
				C836.7,234.5,831.5,235.4,827.6,235.5z"/>
		</g>
	</g>
	<ellipse fill="#FFFFFF" cx="795.8" cy="120.5" rx="17.4" ry="20.3"/>
	<ellipse fill="#FFFFFF" cx="858.8" cy="120.5" rx="17.4" ry="20.3"/>
	<path fill="#FFFFFF" d="M821.6,182c-10.4,3.1-12.5,14.6-21.2,17c-6.1,1.7-11-0.2-11-0.2c-0.1,0-0.2-0.1-0.2-0.1
		c-10.5-4.1-9.7-14.5-20-17.5c-0.5-0.2-5.1-1.4-9.8,0.5c-7.5,3.2-6.3,11.2-14.3,15.2c-4.5,2.3-10.3,2.5-13.5,0c-0.4-0.4-2-1.6-2-3.2
		c-0.1-2.3,2.7-3.9,3.2-4.3c3.4-1.9,5.8,0.1,9-0.5c6.8-1.2,6-8.9,14-13.5c5.1-2.9,12.1-2.3,16.7,0c8.2,4.1,9.9,6.1,16.5,13.5
		c2.3,2.6,3.8,3.8,5.4,4c2.7,0.3,5.1-1.5,6.5-2.6c12.6-10.2,14.5-12.9,18.8-14.6c6.9-2.6,13.6-0.1,14,0c4.3,1.6,6.2,4.4,18.8,14.6
		c1.4,1.2,3.8,2.9,6.5,2.6c1.6-0.2,3.1-1.4,5.4-4c6.6-7.4,8.3-9.4,16.5-13.5c4.7-2.3,11.7-2.9,16.7,0c8,4.6,7.2,12.3,14,13.5
		c3.2,0.6,5.6-1.4,9,0.5c0.6,0.3,3.3,1.9,3.2,4.3c0,1.7-1.6,2.9-2,3.2c-3.2,2.5-9,2.3-13.5,0c-8-4.1-6.7-12.1-14.3-15.2
		c-4.6-1.9-9.2-0.7-9.8-0.5c-10.3,3-9.5,13.4-20,17.5c-0.1,0-0.1,0.1-0.2,0.1c0,0-4.9,1.8-11,0.2c-8.7-2.4-10.8-13.9-21.2-17
		C831.3,181.7,826.7,180.4,821.6,182z"/>
</g>
<g>
	<g>
		<path fill="#FFFFFF" stroke="#B2B2B2" stroke-miterlimit="10" d="M151.2,11.9c-0.6,0-1.1,0-1.6,0c-0.5,0-1.1,0-1.6,0
			c-10.5,0-20.8,1.6-30.5,4.7c-25,7.9-46.5,25.5-62.3,50.9c-11.4,18.4-19.7,41.2-22.2,61c-2.8,22.4-4.2,49-3.8,71
			c0.2,11.6,1,21.1,2.2,28.3c0.8,4.8,1.9,8.6,3.2,11.7c4.6,10.6,12.5,13.1,16.8,13.7c3.4,0.5,6.4,0.7,9.2,0.7
			c5.6,0,10.4-0.9,14.7-2.6c12.4-5.1,17.5-14.5,21-20.8c1.8-3.3,2.8-4.9,3.6-5.3c0.8-0.4,2-0.6,3.4-0.6c1.9,0,3.5,0.5,4.4,0.9
			c1.2,0.6,2,1.7,4.3,5.7c3.7,6.3,9.2,15.8,22.4,20.2c3.2,1.1,10.7,2,15,2l0.2,0l0.2,0c4.3-0.1,11.8-1,15-2
			c13.1-4.4,18.7-13.9,22.4-20.2c2.3-3.9,3.1-5.1,4.3-5.7c0.9-0.4,2.5-0.9,4.4-0.9c1.3,0,2.6,0.2,3.4,0.6c0.9,0.4,1.8,2,3.6,5.3
			c3.4,6.3,8.6,15.7,21,20.8c4.3,1.8,9.1,2.6,14.7,2.6c2.8,0,5.9-0.2,9.2-0.7c4.3-0.6,12.3-3.2,16.8-13.7c1.4-3.1,2.4-7,3.2-11.7
			c1.2-7.2,2-16.7,2.2-28.3c0.5-22.1-0.9-48.6-3.8-71c-2.5-19.9-10.8-42.7-22.2-61c-15.8-25.4-37.3-43-62.3-50.9
			C172,13.5,161.7,11.9,151.2,11.9L151.2,11.9z"/>
		<g>
			<path fill="#DA353A" d="M149.6,235.5c-3.9-0.1-9.1-1-9.4-1.1c-13.2-4.4-11.6-18.9-24.7-25.1c-6.8-3.2-16.3-3.7-23.6,0
				c-12.1,6.2-10.7,20.3-23.3,25.5c-4.2,1.7-10,1.4-14.6,0.8c-8.3-1.1-8.6-60.8-3.1-104.7c3.7-29.1,24.7-82,72.1-97
				c9.5-3,18.6-4,26.7-3.8c8.1-0.2,17.2,0.8,26.7,3.8c47.4,15.1,68.4,67.9,72.1,97c5.5,44,5.2,103.6-3.1,104.7
				c-4.6,0.6-10.4,1-14.6-0.8c-12.6-5.2-11.1-19.3-23.3-25.5c-7.3-3.7-16.8-3.2-23.6,0c-13.2,6.3-11.6,20.7-24.8,25.1
				C158.7,234.5,153.5,235.4,149.6,235.5z"/>
		</g>
	</g>
	<ellipse fill="#FFFFFF" cx="117.1" cy="110.7" rx="36.5" ry="40.5"/>
	<path fill="#FFFFFF" d="M246.2,119.3c-3.2,14.2-16.9,31.8-35.7,31.9c-20.3,0.1-36.5-20.3-36.5-40.5c0-22.4,16.3-40.5,36.5-40.5
		c8.1,0,14.3,3.1,16.7,4.5l0,0C236.9,89.5,243.1,105.7,246.2,119.3L246.2,119.3z"/>
	<ellipse fill="#0954AB" cx="133.1" cy="115.3" rx="17.3" ry="20.3"/>
	<ellipse fill="#0954AB" cx="228.4" cy="115.3" rx="17.3" ry="20.3"/>
</g>
<g>
	<path fill="#FFFFFF" stroke="#B2B2B2" stroke-miterlimit="10" d="M595.1,25.5c-31,0-60.2,12.1-82.2,34c-22,22-34,51.1-34,82.2
		c0,31,12.1,60.2,34,82.2c22,22,51.1,34,82.2,34c18.4,0,36.6-4.4,52.9-12.7c15.7-8,29.6-19.8,40.2-33.9l12.9-17.2l-19.2-9.7
		l-85.4-42.9l86.1-41.1l19.5-9.3l-12.6-17.5c-10.6-14.6-24.5-26.7-40.5-35C632.4,30.1,613.8,25.5,595.1,25.5L595.1,25.5z"/>
	<g>
		<path fill="#F8E828" d="M573.6,150.3c-7.4-3.7-7.2-14.2,0.2-17.8l101-48.2c-17.8-24.7-46.8-40.7-79.6-40.7
			c-54.2,0-98.2,44-98.2,98.2c0,54.2,44,98.2,98.2,98.2c32.2,0,60.7-15.5,78.7-39.4L573.6,150.3z"/>
	</g>
</g>
</svg>
