<?xml version="1.0" encoding="UTF-8" standalone="no"?>
<svg
   version="1.1"
   viewBox="0 0 156 45"
   id="svg12"
   sodipodi:docname="wolf.svg"
   inkscape:version="1.3.2 (091e20e, 2023-11-25, custom)"
   xmlns:inkscape="http://www.inkscape.org/namespaces/inkscape"
   xmlns:sodipodi="http://sodipodi.sourceforge.net/DTD/sodipodi-0.dtd"
   xmlns="http://www.w3.org/2000/svg"
   xmlns:svg="http://www.w3.org/2000/svg"
   xmlns:rdf="http://www.w3.org/1999/02/22-rdf-syntax-ns#"
   xmlns:cc="http://creativecommons.org/ns#"
   xmlns:dc="http://purl.org/dc/elements/1.1/">
  <defs
     id="defs12" />
  <sodipodi:namedview
     id="namedview12"
     pagecolor="#ffffff"
     bordercolor="#000000"
     borderopacity="0.25"
     inkscape:showpageshadow="2"
     inkscape:pageopacity="0.0"
     inkscape:pagecheckerboard="0"
     inkscape:deskcolor="#d1d1d1"
     inkscape:zoom="8.2115385"
     inkscape:cx="58.758782"
     inkscape:cy="22.468384"
     inkscape:window-width="1920"
     inkscape:window-height="1009"
     inkscape:window-x="-8"
     inkscape:window-y="-8"
     inkscape:window-maximized="1"
     inkscape:current-layer="svg12" />
  <title
     id="title1">Wolfenstein logo</title>
  <path
     d="M22 9v25l-2 1V9h-6v25l-2 1V9H0l6 4v32l8-5v5l14-9V9h-6"
     id="path1"
     style="fill:#f8f8f8;fill-opacity:1" />
  <path
     d="M52 5l-6 4v36l6-4V5"
     id="path2"
     style="fill:#f8f8f8;fill-opacity:1" />
  <path
     d="M60 4l6-4h-6l-6 4v36l6-4V13l6-4h-6V4"
     id="path3"
     style="fill:#f8f8f8;fill-opacity:1" />
  <path
     d="M70 28l6-4V9h-6l-8 5v22h14v-6h-8V17l2-1.25V28"
     id="path4"
     style="fill:#f8f8f8;fill-opacity:1" />
  <path
     d="M78 9v27h6V15h2v21h6V9H78"
     id="path5"
     style="fill:#f8f8f8;fill-opacity:1" />
  <path
     d="M94 30v6h14V24l-8-5v-4h2v4l6-4V9H94v12l8 5v4h-2v-4l-6 4"
     id="path6"
     style="fill:#f8f8f8;fill-opacity:1" />
  <path
     d="M110 9v31l6-4V13l6-4h-6V5l-6 4"
     id="path7"
     style="fill:#f8f8f8;fill-opacity:1" />
  <path
     d="M126 28l6-4V9h-6l-8 5v22h14v-6h-8V17l2-1.25V28"
     id="path8"
     style="fill:#f8f8f8;fill-opacity:1" />
  <path
     d="M140 11l-6 4v21h6V11"
     id="path9"
     style="fill:#f8f8f8;fill-opacity:1" />
  <path
     d="M140 5l-6 4v4l6-4V5"
     id="path10"
     style="fill:#f8f8f8;fill-opacity:1" />
  <path
     d="M142 9v27h6V15h2v21h6V9h-14"
     id="path11"
     style="fill:#f8f8f8;fill-opacity:1" />
  <path
     d="M30 9v27h14V9zm8 21h-2V15h2z"
     id="path12"
     style="fill:#f8f8f8;fill-opacity:1" />
  <metadata
     id="metadata33">
    <rdf:RDF>
      <cc:Work
         rdf:about="">
        <dc:title>Wolfenstein logo</dc:title>
      </cc:Work>
    </rdf:RDF>
  </metadata>
</svg>
